<svg xmlns="http://www.w3.org/2000/svg" width="146" height="24" viewBox="0 0 146 24" fill="none"><path d="M24.1868 21.6812H23.4648V15.4947C23.4626 13.4911 22.6657 11.5703 21.2489 10.1535C19.8322 8.73676 17.9113 7.93985 15.9077 7.93763H13.0819V21.6812H11.6547V0H8.8289C6.82525 0.00240256 4.90437 0.799461 3.48764 2.21632C2.07091 3.63318 1.27403 5.55414 1.27181 7.55779V21.6812H0.549824C0.402256 21.6863 0.262457 21.7486 0.15989 21.8548C0.0573236 21.961 0 22.1029 0 22.2506C0 22.3982 0.0573236 22.5401 0.15989 22.6464C0.262457 22.7526 0.402256 22.8148 0.549824 22.82H24.1868C24.3343 22.8148 24.4741 22.7526 24.5767 22.6464C24.6793 22.5401 24.7366 22.3982 24.7366 22.2506C24.7366 22.1029 24.6793 21.961 24.5767 21.8548C24.4741 21.7486 24.3343 21.6863 24.1868 21.6812ZM2.41134 21.6812V7.55779C2.41282 5.85614 3.08941 4.22459 4.29259 3.02128C5.49578 1.81796 7.12725 1.1412 8.8289 1.13953H10.5152V2.27837H8.80726C7.41234 2.28776 6.07762 2.84781 5.09367 3.8366C4.10972 4.82539 3.55622 6.16285 3.55367 7.55779V21.6812H2.41134ZM4.68971 21.6812V7.55779C4.69171 6.46387 5.12572 5.41503 5.89728 4.63955C6.66883 3.86408 7.71546 3.42475 8.80935 3.4172H10.5173V4.55674H8.80167C8.01104 4.56628 7.25592 4.88659 6.69956 5.44843C6.14321 6.01027 5.83032 6.7685 5.82855 7.55919V21.6812H4.68971ZM6.96738 21.6812V7.55779C6.96879 7.06819 7.16239 6.59871 7.5065 6.25043C7.8506 5.90214 8.31771 5.70289 8.80726 5.69557H10.5124V21.6812H6.96738ZM14.2214 21.6812V13.6325H15.9293C16.4195 13.6387 16.8875 13.8376 17.2323 14.186C17.5771 14.5344 17.7709 15.0045 17.772 15.4947V21.6812H14.2214ZM18.908 21.6812V15.4947C18.9063 14.704 18.5934 13.9458 18.037 13.384C17.4807 12.8221 16.7256 12.5018 15.9349 12.4923H14.2214V11.3541H15.9293C17.0233 11.3615 18.07 11.8008 18.8416 12.5763C19.6132 13.3518 20.0472 14.4008 20.049 15.4947V21.6812H18.908ZM21.1864 21.6812V15.4947C21.1839 14.0997 20.6304 12.7622 19.6465 11.7733C18.6625 10.7844 17.3278 10.2242 15.9328 10.2146H14.2214V9.07647H15.9077C17.6093 9.07813 19.2408 9.7549 20.444 10.9582C21.6472 12.1615 22.3238 13.7931 22.3253 15.4947V21.6812H21.1864Z" fill="black"></path><path d="M35.4761 6.32007H40.8011C41.6594 6.32007 42.4469 6.49923 43.1636 6.85757C43.8886 7.2159 44.4677 7.7409 44.9011 8.43257C45.3427 9.12423 45.5636 9.9784 45.5636 10.9951C45.5636 12.0034 45.3511 12.8451 44.9261 13.5201C44.5094 14.1867 44.0052 14.6909 43.4136 15.0326C42.8302 15.3659 42.2844 15.5409 41.7761 15.5576L45.9011 22.8201H44.3011L40.3511 15.6576H36.8761V22.8201H35.4761V6.32007ZM36.8761 14.5201H40.3261C41.4511 14.5201 42.3636 14.2367 43.0636 13.6701C43.7719 13.1034 44.1261 12.2201 44.1261 11.0201C44.1261 9.81173 43.7761 8.93673 43.0761 8.39507C42.3761 7.84507 41.4594 7.57007 40.3261 7.57007H36.8761V14.5201ZM49.4163 17.8576C49.4246 18.5742 49.5663 19.2451 49.8413 19.8701C50.1246 20.4951 50.5496 20.9992 51.1163 21.3826C51.683 21.7659 52.3955 21.9576 53.2538 21.9576C53.9538 21.9576 54.5371 21.8451 55.0038 21.6201C55.4788 21.3867 55.8538 21.1201 56.1288 20.8201C56.4121 20.5117 56.6121 20.2367 56.7288 19.9951L57.6163 20.8701C57.308 21.3451 56.9496 21.7534 56.5413 22.0951C56.1413 22.4284 55.6663 22.6826 55.1163 22.8576C54.5746 23.0326 53.9288 23.1201 53.1788 23.1201C52.0871 23.1201 51.1538 22.8784 50.3788 22.3951C49.6121 21.9034 49.0246 21.2367 48.6163 20.3951C48.2163 19.5534 48.0163 18.6076 48.0163 17.5576C48.0163 16.5576 48.2163 15.6576 48.6163 14.8576C49.0163 14.0576 49.5913 13.4242 50.3413 12.9576C51.0996 12.4909 52.0121 12.2576 53.0788 12.2576C54.0455 12.2576 54.883 12.4701 55.5913 12.8951C56.308 13.3201 56.8621 13.9117 57.2538 14.6701C57.6538 15.4201 57.8538 16.2951 57.8538 17.2951C57.8538 17.3701 57.8496 17.4659 57.8413 17.5826C57.8413 17.6992 57.8371 17.7909 57.8288 17.8576H49.4163ZM56.4288 16.6701C56.4205 16.2201 56.308 15.7451 56.0913 15.2451C55.883 14.7367 55.5371 14.3076 55.0538 13.9576C54.5788 13.5992 53.9246 13.4201 53.0913 13.4201C52.2246 13.4201 51.533 13.5951 51.0163 13.9451C50.508 14.2867 50.1371 14.7076 49.9038 15.2076C49.6705 15.7076 49.5288 16.1951 49.4788 16.6701H56.4288ZM68.8237 22.8201V20.6701C68.7654 20.8951 68.5696 21.2034 68.2362 21.5951C67.9112 21.9867 67.4571 22.3409 66.8737 22.6576C66.2987 22.9659 65.6154 23.1201 64.8237 23.1201C63.8987 23.1201 63.0446 22.9076 62.2612 22.4826C61.4862 22.0492 60.8612 21.4284 60.3862 20.6201C59.9196 19.8034 59.6862 18.8284 59.6862 17.6951C59.6862 16.5617 59.9196 15.5909 60.3862 14.7826C60.8612 13.9659 61.4862 13.3409 62.2612 12.9076C63.0446 12.4742 63.8987 12.2576 64.8237 12.2576C65.6154 12.2576 66.2987 12.4076 66.8737 12.7076C67.4487 12.9992 67.9029 13.3367 68.2362 13.7201C68.5779 14.1034 68.7696 14.4242 68.8112 14.6826V12.5576H70.2112V22.8201H68.8237ZM61.0987 17.6951C61.0987 18.5617 61.2862 19.3076 61.6612 19.9326C62.0362 20.5576 62.5196 21.0367 63.1112 21.3701C63.7112 21.7034 64.3404 21.8701 64.9987 21.8701C65.7237 21.8701 66.3696 21.6992 66.9362 21.3576C67.5029 21.0159 67.9487 20.5326 68.2737 19.9076C68.6071 19.2826 68.7737 18.5451 68.7737 17.6951C68.7737 16.8451 68.6071 16.1076 68.2737 15.4826C67.9487 14.8576 67.5029 14.3742 66.9362 14.0326C66.3696 13.6826 65.7237 13.5076 64.9987 13.5076C64.3404 13.5076 63.7112 13.6784 63.1112 14.0201C62.5196 14.3534 62.0362 14.8326 61.6612 15.4576C61.2862 16.0826 61.0987 16.8284 61.0987 17.6951ZM74.9138 22.8201H73.4638V5.62007H74.9138V22.8201ZM77.9442 6.32007H88.4817V9.59507H81.6692V12.9576H88.4192V16.1326H81.6692V19.5451H88.4817V22.8201H77.9442V6.32007ZM95.9112 12.2576C96.5862 12.2576 97.2029 12.3159 97.7612 12.4326C98.3196 12.5409 98.7862 12.6659 99.1612 12.8076C99.5446 12.9492 99.7904 13.0659 99.8987 13.1576L98.6612 15.3951C98.5029 15.2784 98.2071 15.1284 97.7737 14.9451C97.3487 14.7617 96.8737 14.6701 96.3487 14.6701C95.9487 14.6701 95.6112 14.7326 95.3362 14.8576C95.0612 14.9742 94.9237 15.1617 94.9237 15.4201C94.9237 15.6784 95.0737 15.8867 95.3737 16.0451C95.6821 16.1951 96.1237 16.3284 96.6987 16.4451C97.1987 16.5451 97.7071 16.7034 98.2237 16.9201C98.7404 17.1367 99.1696 17.4576 99.5112 17.8826C99.8612 18.2992 100.036 18.8576 100.036 19.5576C100.036 20.2742 99.8821 20.8659 99.5737 21.3326C99.2654 21.7992 98.8571 22.1617 98.3487 22.4201C97.8404 22.6784 97.2904 22.8576 96.6987 22.9576C96.1071 23.0659 95.5321 23.1201 94.9737 23.1201C94.1904 23.1201 93.5071 23.0492 92.9237 22.9076C92.3487 22.7659 91.8821 22.6034 91.5237 22.4201C91.1654 22.2367 90.9154 22.0909 90.7737 21.9826L91.9987 19.4826C92.2154 19.6659 92.5696 19.8742 93.0612 20.1076C93.5529 20.3326 94.0737 20.4451 94.6237 20.4451C95.1571 20.4451 95.5696 20.3659 95.8612 20.2076C96.1529 20.0492 96.2987 19.8409 96.2987 19.5826C96.2987 19.3742 96.2279 19.2076 96.0862 19.0826C95.9446 18.9576 95.7446 18.8492 95.4862 18.7576C95.2279 18.6659 94.9154 18.5826 94.5487 18.5076C94.2154 18.4409 93.8612 18.3367 93.4862 18.1951C93.1112 18.0534 92.7571 17.8617 92.4237 17.6201C92.0904 17.3701 91.8196 17.0576 91.6112 16.6826C91.4029 16.3076 91.2987 15.8534 91.2987 15.3201C91.2987 14.6367 91.5196 14.0701 91.9612 13.6201C92.4029 13.1701 92.9737 12.8326 93.6737 12.6076C94.3737 12.3742 95.1196 12.2576 95.9112 12.2576ZM101.008 12.5576H102.758V8.34507H106.52V12.5576H108.82V15.6826H106.52V18.5451C106.52 18.9701 106.583 19.3159 106.708 19.5826C106.833 19.8409 107.062 19.9701 107.395 19.9701C107.62 19.9701 107.812 19.9201 107.97 19.8201C108.128 19.7201 108.224 19.6534 108.258 19.6201L109.558 22.3201C109.499 22.3701 109.316 22.4617 109.008 22.5951C108.708 22.7284 108.324 22.8492 107.858 22.9576C107.391 23.0659 106.87 23.1201 106.295 23.1201C105.27 23.1201 104.424 22.8326 103.758 22.2576C103.091 21.6742 102.758 20.7784 102.758 19.5701V15.6826H101.008V12.5576ZM118.927 22.8201V21.1576C118.852 21.3242 118.66 21.5659 118.352 21.8826C118.052 22.1992 117.652 22.4867 117.152 22.7451C116.652 22.9951 116.069 23.1201 115.402 23.1201C114.402 23.1201 113.527 22.8784 112.777 22.3951C112.027 21.9034 111.444 21.2492 111.027 20.4326C110.61 19.6076 110.402 18.6951 110.402 17.6951C110.402 16.6951 110.61 15.7867 111.027 14.9701C111.444 14.1451 112.027 13.4867 112.777 12.9951C113.527 12.5034 114.402 12.2576 115.402 12.2576C116.044 12.2576 116.606 12.3617 117.09 12.5701C117.573 12.7701 117.965 13.0117 118.265 13.2951C118.565 13.5701 118.773 13.8242 118.89 14.0576V12.5576H122.665V22.8201H118.927ZM114.127 17.6951C114.127 18.1617 114.235 18.5826 114.452 18.9576C114.669 19.3242 114.956 19.6117 115.315 19.8201C115.681 20.0284 116.085 20.1326 116.527 20.1326C116.985 20.1326 117.39 20.0284 117.74 19.8201C118.09 19.6117 118.365 19.3242 118.565 18.9576C118.773 18.5826 118.877 18.1617 118.877 17.6951C118.877 17.2284 118.773 16.8117 118.565 16.4451C118.365 16.0701 118.09 15.7784 117.74 15.5701C117.39 15.3534 116.985 15.2451 116.527 15.2451C116.085 15.2451 115.681 15.3534 115.315 15.5701C114.956 15.7784 114.669 16.0701 114.452 16.4451C114.235 16.8117 114.127 17.2284 114.127 17.6951ZM124.201 12.5576H125.951V8.34507H129.713V12.5576H132.013V15.6826H129.713V18.5451C129.713 18.9701 129.776 19.3159 129.901 19.5826C130.026 19.8409 130.255 19.9701 130.588 19.9701C130.813 19.9701 131.005 19.9201 131.163 19.8201C131.322 19.7201 131.418 19.6534 131.451 19.6201L132.751 22.3201C132.693 22.3701 132.509 22.4617 132.201 22.5951C131.901 22.7284 131.518 22.8492 131.051 22.9576C130.584 23.0659 130.063 23.1201 129.488 23.1201C128.463 23.1201 127.618 22.8326 126.951 22.2576C126.284 21.6742 125.951 20.7784 125.951 19.5701V15.6826H124.201V12.5576ZM137.183 18.4951C137.208 18.8617 137.325 19.1867 137.533 19.4701C137.741 19.7534 138.029 19.9784 138.395 20.1451C138.77 20.3034 139.212 20.3826 139.72 20.3826C140.204 20.3826 140.637 20.3326 141.02 20.2326C141.412 20.1326 141.75 20.0076 142.033 19.8576C142.325 19.7076 142.55 19.5534 142.708 19.3951L144.183 21.7451C143.975 21.9701 143.679 22.1909 143.295 22.4076C142.92 22.6159 142.425 22.7867 141.808 22.9201C141.191 23.0534 140.412 23.1201 139.47 23.1201C138.337 23.1201 137.329 22.9076 136.445 22.4826C135.562 22.0576 134.866 21.4326 134.358 20.6076C133.85 19.7826 133.595 18.7742 133.595 17.5826C133.595 16.5826 133.812 15.6826 134.245 14.8826C134.687 14.0742 135.325 13.4367 136.158 12.9701C136.991 12.4951 137.995 12.2576 139.17 12.2576C140.287 12.2576 141.254 12.4617 142.07 12.8701C142.895 13.2784 143.529 13.8867 143.97 14.6951C144.42 15.4951 144.645 16.4951 144.645 17.6951C144.645 17.7617 144.641 17.8951 144.633 18.0951C144.633 18.2951 144.625 18.4284 144.608 18.4951H137.183ZM141.07 16.5076C141.062 16.2409 140.991 15.9784 140.858 15.7201C140.725 15.4534 140.525 15.2367 140.258 15.0701C139.991 14.8951 139.65 14.8076 139.233 14.8076C138.816 14.8076 138.462 14.8909 138.17 15.0576C137.887 15.2159 137.67 15.4242 137.52 15.6826C137.37 15.9409 137.287 16.2159 137.27 16.5076H141.07Z" fill="black"></path></svg>